# xmcd
#
# Track frame offsets:
#	150
#	11896
#	21996
#	32911
#	43775
#	55682
#	67426
#	78511
#	90773
#	99079
#	100907
#	106110
#	111410
#	116071
#	119374
#	128546
#	136678
#	145279
#	147329
#	155411
#	156232
#	160350
#	165050
#	175422
#	185090
#	190699
#	196704
#	200353
#
# Disc length: 2812 seconds
#
# Revision: 1
# Processed by: cddbd v1.5.1PL2 Copyright (c) Steve Scherf et al.
# Submitted via: EasyCDDAExtractor 7.0.5.1
#
DISCID=7c0afa1c
DTITLE=Various Artist - Grosser Österreichischer Zapfenstreich und Militärmär
DTITLE=sche
DYEAR=1999
DGENRE=Blasmusik
TTITLE0=Anton Rosenkranz - 76er Regimentsmarsch - Burgenland
TTITLE1=Anton Fridrich - Khevenhüller-Marsch - Kärnten
TTITLE2=Carl Michael Ziehrer - Schönfeld-Marsch - Niederösterreich
TTITLE3=Karl Pernklau - Hessen-Marsch - Oberösterreich
TTITLE4=Hans Schmid - Rainer-Marsch - Salzburg
TTITLE5=Josef Franz Wagner - 47er Regimentsmarsch - Steiermark
TTITLE6=Karl Mühlberger - Mir sein die Kaiserjäger-Marsch - Tirol
TTITLE7=Erich Hendl - Unter'm Montfortbanner-Marsch - Vorarlberg
TTITLE8=Josef Wiedemann - Wagramer Grenadier-Marsch - Wien
TTITLE9=Historisch - Fanfare
TTITLE10=Historisch - Alter Zapfenstreich - historische Instrumentation
TTITLE11=Historisch - Alter Zapfenstreich - zeitgemäße Instrumentation
TTITLE12=Historisch - Hornsignale: Habt Acht, Vergatterung, Sturm, Beschleunig
TTITLE12=ung und Attacke
TTITLE13=Historisch - Zapfenstreich - Trommelstreich
TTITLE14=Historisch - Zapfenstreich - Orchestral
TTITLE15=Historisch - Prinz Eugen - Marsch
TTITLE16=Historisch - O du mein Österreich - Marsch
TTITLE17=Historisch - Zum Gebet - Trommelstreich
TTITLE18=Historisch - Niederländisches Dankgebet
TTITLE19=Historisch - Zum Gebet - Hornsignal
TTITLE20=Historisch - Das Gebet - Orchestral
TTITLE21=Historisch - Gebet während der Schlacht
TTITLE22=Historisch - Zapfenstreich - Hornsignal
TTITLE23=Historisch - Vorspiel zur Bundeshymne
TTITLE24=Historisch - Bundeshymne
TTITLE25=Historisch - Europahymne
TTITLE26=Historisch - Finale: Fanfare, Abblasen, Abschlag
TTITLE27=Johann Strauß Vater - Radetzky-Marsch
EXTD=
EXTT0=
EXTT1=
EXTT2=
EXTT3=
EXTT4=
EXTT5=
EXTT6=
EXTT7=
EXTT8=
EXTT9=
EXTT10=
EXTT11=
EXTT12=
EXTT13=
EXTT14=
EXTT15=
EXTT16=
EXTT17=
EXTT18=
EXTT19=
EXTT20=
EXTT21=
EXTT22=
EXTT23=
EXTT24=
EXTT25=
EXTT26=
EXTT27=
PLAYORDER=
